<mxfile host="app.diagrams.net" modified="2020-08-12T09:39:24.897Z" agent="5.0 (Windows NT 10.0; Win64; x64) AppleWebKit/537.36 (KHTML, like Gecko) Chrome/84.0.4147.105 Safari/537.36" etag="k7g6nWKjjGagEUwXWcue" version="13.5.4" type="github">
  <diagram name="Page-1" id="0783ab3e-0a74-02c8-0abd-f7b4e66b4bec">
    <mxGraphModel dx="2333" dy="794" grid="1" gridSize="10" guides="1" tooltips="1" connect="1" arrows="1" fold="1" page="1" pageScale="1" pageWidth="850" pageHeight="1100" background="#ffffff" math="0" shadow="0">
      <root>
        <mxCell id="0" />
        <mxCell id="1" parent="0" />
        <mxCell id="1c1d494c118603dd-1" value="碰一碰查询FA应用并下载拉起流程图" style="swimlane;html=1;childLayout=stackLayout;startSize=20;rounded=0;shadow=0;comic=0;labelBackgroundColor=none;strokeWidth=1;fontFamily=Verdana;fontSize=12;align=center;" parent="1" vertex="1">
          <mxGeometry x="-80" y="40" width="1940" height="1320" as="geometry" />
        </mxCell>
        <mxCell id="1c1d494c118603dd-2" value="手机设备侧" style="swimlane;html=1;startSize=20;" parent="1c1d494c118603dd-1" vertex="1">
          <mxGeometry y="20" width="1040" height="1300" as="geometry" />
        </mxCell>
        <mxCell id="P_OR-0nrxTRL4F3owcym-167" value="碰一碰应用" style="swimlane;html=1;startSize=20;" vertex="1" parent="1c1d494c118603dd-2">
          <mxGeometry y="20" width="380" height="1280" as="geometry" />
        </mxCell>
        <mxCell id="P_OR-0nrxTRL4F3owcym-168" style="edgeStyle=orthogonalEdgeStyle;rounded=0;html=1;labelBackgroundColor=none;startArrow=none;startFill=0;startSize=5;endArrow=classicThin;endFill=1;endSize=5;jettySize=auto;orthogonalLoop=1;strokeWidth=1;fontFamily=Verdana;fontSize=12" edge="1" parent="P_OR-0nrxTRL4F3owcym-167" source="P_OR-0nrxTRL4F3owcym-181" target="P_OR-0nrxTRL4F3owcym-180">
          <mxGeometry relative="1" as="geometry" />
        </mxCell>
        <mxCell id="P_OR-0nrxTRL4F3owcym-169" style="edgeStyle=orthogonalEdgeStyle;rounded=0;orthogonalLoop=1;jettySize=auto;html=1;exitX=0.5;exitY=1;exitDx=0;exitDy=0;entryX=0.5;entryY=0;entryDx=0;entryDy=0;" edge="1" parent="P_OR-0nrxTRL4F3owcym-167" source="P_OR-0nrxTRL4F3owcym-180" target="P_OR-0nrxTRL4F3owcym-182">
          <mxGeometry relative="1" as="geometry" />
        </mxCell>
        <mxCell id="P_OR-0nrxTRL4F3owcym-170" style="edgeStyle=orthogonalEdgeStyle;rounded=0;orthogonalLoop=1;jettySize=auto;html=1;exitX=0;exitY=0.5;exitDx=0;exitDy=0;entryX=0.5;entryY=0;entryDx=0;entryDy=0;" edge="1" parent="P_OR-0nrxTRL4F3owcym-167" source="P_OR-0nrxTRL4F3owcym-172" target="P_OR-0nrxTRL4F3owcym-199">
          <mxGeometry relative="1" as="geometry">
            <Array as="points">
              <mxPoint x="43" y="705" />
              <mxPoint x="43" y="330" />
              <mxPoint x="298" y="330" />
            </Array>
          </mxGeometry>
        </mxCell>
        <mxCell id="P_OR-0nrxTRL4F3owcym-171" style="edgeStyle=orthogonalEdgeStyle;rounded=0;orthogonalLoop=1;jettySize=auto;html=1;exitX=0.5;exitY=1;exitDx=0;exitDy=0;entryX=0.5;entryY=0;entryDx=0;entryDy=0;" edge="1" parent="P_OR-0nrxTRL4F3owcym-167" source="P_OR-0nrxTRL4F3owcym-172" target="P_OR-0nrxTRL4F3owcym-174">
          <mxGeometry relative="1" as="geometry" />
        </mxCell>
        <mxCell id="P_OR-0nrxTRL4F3owcym-172" value="获取FA最新信息" style="rounded=1;whiteSpace=wrap;html=1;shadow=0;comic=0;labelBackgroundColor=none;strokeWidth=1;fontFamily=Verdana;fontSize=12;align=center;arcSize=50;" vertex="1" parent="P_OR-0nrxTRL4F3owcym-167">
          <mxGeometry x="63" y="690" width="100" height="30" as="geometry" />
        </mxCell>
        <mxCell id="P_OR-0nrxTRL4F3owcym-173" style="edgeStyle=orthogonalEdgeStyle;rounded=0;orthogonalLoop=1;jettySize=auto;html=1;exitX=0.5;exitY=1;exitDx=0;exitDy=0;entryX=0.5;entryY=0;entryDx=0;entryDy=0;" edge="1" parent="P_OR-0nrxTRL4F3owcym-167" source="P_OR-0nrxTRL4F3owcym-174" target="P_OR-0nrxTRL4F3owcym-176">
          <mxGeometry relative="1" as="geometry" />
        </mxCell>
        <mxCell id="P_OR-0nrxTRL4F3owcym-174" value="获取FA版本号并进行比较" style="rounded=1;whiteSpace=wrap;html=1;shadow=0;comic=0;labelBackgroundColor=none;strokeWidth=1;fontFamily=Verdana;fontSize=12;align=center;arcSize=50;" vertex="1" parent="P_OR-0nrxTRL4F3owcym-167">
          <mxGeometry x="63" y="760" width="100" height="30" as="geometry" />
        </mxCell>
        <mxCell id="P_OR-0nrxTRL4F3owcym-175" value="YES" style="edgeStyle=orthogonalEdgeStyle;rounded=0;orthogonalLoop=1;jettySize=auto;html=1;exitX=0.5;exitY=1;exitDx=0;exitDy=0;entryX=0.5;entryY=0;entryDx=0;entryDy=0;" edge="1" parent="P_OR-0nrxTRL4F3owcym-167" source="P_OR-0nrxTRL4F3owcym-176" target="P_OR-0nrxTRL4F3owcym-178">
          <mxGeometry relative="1" as="geometry" />
        </mxCell>
        <mxCell id="P_OR-0nrxTRL4F3owcym-176" value="是否需要更新FA?" style="rhombus;whiteSpace=wrap;html=1;" vertex="1" parent="P_OR-0nrxTRL4F3owcym-167">
          <mxGeometry x="73" y="840" width="80" height="80" as="geometry" />
        </mxCell>
        <mxCell id="P_OR-0nrxTRL4F3owcym-177" style="edgeStyle=orthogonalEdgeStyle;rounded=0;orthogonalLoop=1;jettySize=auto;html=1;exitX=0.5;exitY=1;exitDx=0;exitDy=0;entryX=0.5;entryY=0;entryDx=0;entryDy=0;" edge="1" parent="P_OR-0nrxTRL4F3owcym-167" source="P_OR-0nrxTRL4F3owcym-178" target="P_OR-0nrxTRL4F3owcym-179">
          <mxGeometry relative="1" as="geometry" />
        </mxCell>
        <mxCell id="P_OR-0nrxTRL4F3owcym-178" value="更新标签-应用映射缓存信息" style="rounded=1;whiteSpace=wrap;html=1;shadow=0;comic=0;labelBackgroundColor=none;strokeWidth=1;fontFamily=Verdana;fontSize=12;align=center;arcSize=50;" vertex="1" parent="P_OR-0nrxTRL4F3owcym-167">
          <mxGeometry x="63" y="970" width="100" height="30" as="geometry" />
        </mxCell>
        <mxCell id="P_OR-0nrxTRL4F3owcym-179" value="" style="shape=mxgraph.bpmn.shape;html=1;verticalLabelPosition=bottom;labelBackgroundColor=#ffffff;verticalAlign=top;perimeter=ellipsePerimeter;outline=end;symbol=terminate;rounded=0;shadow=0;comic=0;strokeWidth=1;fontFamily=Verdana;fontSize=12;align=center;" vertex="1" parent="P_OR-0nrxTRL4F3owcym-167">
          <mxGeometry x="93" y="1040" width="40" height="40" as="geometry" />
        </mxCell>
        <mxCell id="P_OR-0nrxTRL4F3owcym-180" value="靠近智能家居设备NFC标签" style="rounded=1;whiteSpace=wrap;html=1;shadow=0;comic=0;labelBackgroundColor=none;strokeWidth=1;fontFamily=Verdana;fontSize=12;align=center;arcSize=50;" vertex="1" parent="P_OR-0nrxTRL4F3owcym-167">
          <mxGeometry x="98" y="111" width="100" height="30" as="geometry" />
        </mxCell>
        <mxCell id="P_OR-0nrxTRL4F3owcym-181" value="&lt;font color=&quot;#ffffff&quot;&gt;开始&lt;/font&gt;" style="ellipse;whiteSpace=wrap;html=1;rounded=0;shadow=0;comic=0;labelBackgroundColor=none;strokeWidth=1;fillColor=#000000;fontFamily=Verdana;fontSize=12;align=center;" vertex="1" parent="P_OR-0nrxTRL4F3owcym-167">
          <mxGeometry x="128" y="41" width="40" height="40" as="geometry" />
        </mxCell>
        <mxCell id="P_OR-0nrxTRL4F3owcym-182" value="获取设备NFC标签信息" style="rounded=1;whiteSpace=wrap;html=1;shadow=0;comic=0;labelBackgroundColor=none;strokeWidth=1;fontFamily=Verdana;fontSize=12;align=center;arcSize=50;" vertex="1" parent="P_OR-0nrxTRL4F3owcym-167">
          <mxGeometry x="98" y="181" width="100" height="30" as="geometry" />
        </mxCell>
        <mxCell id="P_OR-0nrxTRL4F3owcym-183" style="edgeStyle=orthogonalEdgeStyle;rounded=0;orthogonalLoop=1;jettySize=auto;html=1;exitX=0.5;exitY=1;exitDx=0;exitDy=0;entryX=0.5;entryY=0;entryDx=0;entryDy=0;" edge="1" parent="P_OR-0nrxTRL4F3owcym-167" source="P_OR-0nrxTRL4F3owcym-184" target="P_OR-0nrxTRL4F3owcym-197">
          <mxGeometry relative="1" as="geometry" />
        </mxCell>
        <mxCell id="P_OR-0nrxTRL4F3owcym-184" value="缓存读取智能家居设备FA应用信息" style="rounded=1;whiteSpace=wrap;html=1;shadow=0;comic=0;labelBackgroundColor=none;strokeWidth=1;fontFamily=Verdana;fontSize=12;align=center;arcSize=50;" vertex="1" parent="P_OR-0nrxTRL4F3owcym-167">
          <mxGeometry x="98" y="250" width="100" height="30" as="geometry" />
        </mxCell>
        <mxCell id="P_OR-0nrxTRL4F3owcym-185" style="edgeStyle=orthogonalEdgeStyle;rounded=0;orthogonalLoop=1;jettySize=auto;html=1;exitX=0;exitY=0.5;exitDx=0;exitDy=0;entryX=1;entryY=0.5;entryDx=0;entryDy=0;dashed=1;" edge="1" parent="P_OR-0nrxTRL4F3owcym-167" source="P_OR-0nrxTRL4F3owcym-193" target="P_OR-0nrxTRL4F3owcym-184">
          <mxGeometry relative="1" as="geometry" />
        </mxCell>
        <mxCell id="P_OR-0nrxTRL4F3owcym-186" style="edgeStyle=orthogonalEdgeStyle;rounded=0;orthogonalLoop=1;jettySize=auto;html=1;exitX=0.25;exitY=1;exitDx=0;exitDy=0;entryX=0.5;entryY=0;entryDx=0;entryDy=0;" edge="1" parent="P_OR-0nrxTRL4F3owcym-167" source="P_OR-0nrxTRL4F3owcym-187" target="P_OR-0nrxTRL4F3owcym-172">
          <mxGeometry relative="1" as="geometry" />
        </mxCell>
        <mxCell id="P_OR-0nrxTRL4F3owcym-250" style="edgeStyle=orthogonalEdgeStyle;rounded=0;orthogonalLoop=1;jettySize=auto;html=1;exitX=0.75;exitY=1;exitDx=0;exitDy=0;entryX=0.25;entryY=0;entryDx=0;entryDy=0;" edge="1" parent="P_OR-0nrxTRL4F3owcym-167" source="P_OR-0nrxTRL4F3owcym-187" target="P_OR-0nrxTRL4F3owcym-205">
          <mxGeometry relative="1" as="geometry" />
        </mxCell>
        <mxCell id="P_OR-0nrxTRL4F3owcym-187" value="" style="whiteSpace=wrap;html=1;rounded=0;shadow=0;comic=0;labelBackgroundColor=none;strokeWidth=1;fillColor=#000000;fontFamily=Verdana;fontSize=12;align=center;rotation=0;" vertex="1" parent="P_OR-0nrxTRL4F3owcym-167">
          <mxGeometry x="78" y="590" width="140" height="10" as="geometry" />
        </mxCell>
        <mxCell id="P_OR-0nrxTRL4F3owcym-188" style="edgeStyle=orthogonalEdgeStyle;rounded=0;orthogonalLoop=1;jettySize=auto;html=1;exitX=0.5;exitY=1;exitDx=0;exitDy=0;entryX=0.5;entryY=0;entryDx=0;entryDy=0;" edge="1" parent="P_OR-0nrxTRL4F3owcym-167" source="P_OR-0nrxTRL4F3owcym-189" target="P_OR-0nrxTRL4F3owcym-191">
          <mxGeometry relative="1" as="geometry" />
        </mxCell>
        <mxCell id="P_OR-0nrxTRL4F3owcym-189" value="解析FA应用信息" style="rounded=1;whiteSpace=wrap;html=1;shadow=0;comic=0;labelBackgroundColor=none;strokeWidth=1;fontFamily=Verdana;fontSize=12;align=center;arcSize=50;" vertex="1" parent="P_OR-0nrxTRL4F3owcym-167">
          <mxGeometry x="218" y="690" width="100" height="30" as="geometry" />
        </mxCell>
        <mxCell id="P_OR-0nrxTRL4F3owcym-190" style="edgeStyle=orthogonalEdgeStyle;rounded=0;orthogonalLoop=1;jettySize=auto;html=1;exitX=0.5;exitY=1;exitDx=0;exitDy=0;entryX=0.5;entryY=0;entryDx=0;entryDy=0;" edge="1" parent="P_OR-0nrxTRL4F3owcym-167" source="P_OR-0nrxTRL4F3owcym-191" target="P_OR-0nrxTRL4F3owcym-192">
          <mxGeometry relative="1" as="geometry" />
        </mxCell>
        <mxCell id="P_OR-0nrxTRL4F3owcym-191" value="获取FA应用包名及下载地址" style="rounded=1;whiteSpace=wrap;html=1;shadow=0;comic=0;labelBackgroundColor=none;strokeWidth=1;fontFamily=Verdana;fontSize=12;align=center;arcSize=50;" vertex="1" parent="P_OR-0nrxTRL4F3owcym-167">
          <mxGeometry x="218" y="760" width="100" height="30" as="geometry" />
        </mxCell>
        <mxCell id="P_OR-0nrxTRL4F3owcym-192" value="拉起HiLink SVC服务" style="rounded=1;whiteSpace=wrap;html=1;shadow=0;comic=0;labelBackgroundColor=none;strokeWidth=1;fontFamily=Verdana;fontSize=12;align=center;arcSize=50;" vertex="1" parent="P_OR-0nrxTRL4F3owcym-167">
          <mxGeometry x="218" y="830" width="100" height="30" as="geometry" />
        </mxCell>
        <mxCell id="P_OR-0nrxTRL4F3owcym-193" value="解析标签信息" style="rounded=1;whiteSpace=wrap;html=1;shadow=0;comic=0;labelBackgroundColor=none;strokeWidth=1;fontFamily=Verdana;fontSize=12;align=center;arcSize=50;" vertex="1" parent="P_OR-0nrxTRL4F3owcym-167">
          <mxGeometry x="248" y="250" width="100" height="30" as="geometry" />
        </mxCell>
        <mxCell id="P_OR-0nrxTRL4F3owcym-194" value="NO" style="edgeStyle=orthogonalEdgeStyle;rounded=0;orthogonalLoop=1;jettySize=auto;html=1;exitX=1;exitY=0.5;exitDx=0;exitDy=0;" edge="1" parent="P_OR-0nrxTRL4F3owcym-167" source="P_OR-0nrxTRL4F3owcym-197" target="P_OR-0nrxTRL4F3owcym-199">
          <mxGeometry x="-0.3333" relative="1" as="geometry">
            <Array as="points">
              <mxPoint x="208" y="390" />
              <mxPoint x="208" y="390" />
            </Array>
            <mxPoint as="offset" />
          </mxGeometry>
        </mxCell>
        <mxCell id="P_OR-0nrxTRL4F3owcym-195" style="edgeStyle=orthogonalEdgeStyle;rounded=0;orthogonalLoop=1;jettySize=auto;html=1;exitX=0.5;exitY=1;exitDx=0;exitDy=0;entryX=0.5;entryY=0;entryDx=0;entryDy=0;" edge="1" parent="P_OR-0nrxTRL4F3owcym-167" source="P_OR-0nrxTRL4F3owcym-197">
          <mxGeometry relative="1" as="geometry">
            <mxPoint x="148" y="590" as="targetPoint" />
          </mxGeometry>
        </mxCell>
        <mxCell id="P_OR-0nrxTRL4F3owcym-196" value="YES" style="edgeLabel;html=1;align=center;verticalAlign=middle;resizable=0;points=[];" vertex="1" connectable="0" parent="P_OR-0nrxTRL4F3owcym-195">
          <mxGeometry x="-0.3" y="1" relative="1" as="geometry">
            <mxPoint as="offset" />
          </mxGeometry>
        </mxCell>
        <mxCell id="P_OR-0nrxTRL4F3owcym-197" value="本地缓存是否存在FA信息？" style="rhombus;whiteSpace=wrap;html=1;" vertex="1" parent="P_OR-0nrxTRL4F3owcym-167">
          <mxGeometry x="108" y="350" width="80" height="80" as="geometry" />
        </mxCell>
        <mxCell id="P_OR-0nrxTRL4F3owcym-198" value="标签-应用映射缓存" style="shape=note;whiteSpace=wrap;html=1;rounded=0;shadow=0;comic=0;labelBackgroundColor=none;strokeWidth=1;fontFamily=Verdana;fontSize=12;align=center;size=20;" vertex="1" parent="P_OR-0nrxTRL4F3owcym-167">
          <mxGeometry x="198" y="440" width="110" height="40" as="geometry" />
        </mxCell>
        <mxCell id="P_OR-0nrxTRL4F3owcym-199" value="获FA应用信息" style="rounded=1;whiteSpace=wrap;html=1;shadow=0;comic=0;labelBackgroundColor=none;strokeWidth=1;fontFamily=Verdana;fontSize=12;align=center;arcSize=50;" vertex="1" parent="P_OR-0nrxTRL4F3owcym-167">
          <mxGeometry x="248" y="375" width="100" height="30" as="geometry" />
        </mxCell>
        <mxCell id="P_OR-0nrxTRL4F3owcym-200" value="根据标签信息更新缓存FA应用信息" style="rounded=1;whiteSpace=wrap;html=1;shadow=0;comic=0;labelBackgroundColor=none;strokeWidth=1;fontFamily=Verdana;fontSize=12;align=center;arcSize=50;" vertex="1" parent="P_OR-0nrxTRL4F3owcym-167">
          <mxGeometry x="248" y="515" width="100" height="30" as="geometry" />
        </mxCell>
        <mxCell id="P_OR-0nrxTRL4F3owcym-201" value="更新" style="edgeStyle=none;rounded=0;html=1;dashed=1;labelBackgroundColor=none;startArrow=none;startFill=0;startSize=5;endArrow=oval;endFill=0;endSize=5;jettySize=auto;orthogonalLoop=1;strokeWidth=1;fontFamily=Verdana;fontSize=12;exitX=0.5;exitY=1;exitDx=0;exitDy=0;exitPerimeter=0;entryX=0.5;entryY=0;entryDx=0;entryDy=0;" edge="1" parent="P_OR-0nrxTRL4F3owcym-167" source="P_OR-0nrxTRL4F3owcym-198" target="P_OR-0nrxTRL4F3owcym-200">
          <mxGeometry x="-0.5692" y="-16" relative="1" as="geometry">
            <mxPoint x="253" y="450" as="sourcePoint" />
            <mxPoint x="178" y="419.7881690140846" as="targetPoint" />
            <mxPoint as="offset" />
          </mxGeometry>
        </mxCell>
        <mxCell id="P_OR-0nrxTRL4F3owcym-202" value="" style="edgeStyle=none;rounded=0;html=1;dashed=1;labelBackgroundColor=none;startArrow=none;startFill=0;startSize=5;endArrow=oval;endFill=0;endSize=5;jettySize=auto;orthogonalLoop=1;strokeWidth=1;fontFamily=Verdana;fontSize=12;entryX=0.75;entryY=1;entryDx=0;entryDy=0;exitX=0.5;exitY=0;exitDx=0;exitDy=0;exitPerimeter=0;" edge="1" parent="P_OR-0nrxTRL4F3owcym-167" source="P_OR-0nrxTRL4F3owcym-198" target="P_OR-0nrxTRL4F3owcym-184">
          <mxGeometry x="0.525" y="4" relative="1" as="geometry">
            <mxPoint x="258" y="510" as="sourcePoint" />
            <mxPoint x="318" y="595" as="targetPoint" />
            <mxPoint x="-1" as="offset" />
          </mxGeometry>
        </mxCell>
        <mxCell id="P_OR-0nrxTRL4F3owcym-203" value="读取" style="edgeLabel;html=1;align=center;verticalAlign=middle;resizable=0;points=[];" vertex="1" connectable="0" parent="P_OR-0nrxTRL4F3owcym-202">
          <mxGeometry x="0.505" y="-1" relative="1" as="geometry">
            <mxPoint as="offset" />
          </mxGeometry>
        </mxCell>
        <mxCell id="P_OR-0nrxTRL4F3owcym-204" style="edgeStyle=orthogonalEdgeStyle;rounded=0;orthogonalLoop=1;jettySize=auto;html=1;exitX=0.5;exitY=1;exitDx=0;exitDy=0;entryX=0.5;entryY=0;entryDx=0;entryDy=0;" edge="1" parent="P_OR-0nrxTRL4F3owcym-167" source="P_OR-0nrxTRL4F3owcym-205" target="P_OR-0nrxTRL4F3owcym-189">
          <mxGeometry relative="1" as="geometry" />
        </mxCell>
        <mxCell id="P_OR-0nrxTRL4F3owcym-205" value="" style="whiteSpace=wrap;html=1;rounded=0;shadow=0;comic=0;labelBackgroundColor=none;strokeWidth=1;fillColor=#000000;fontFamily=Verdana;fontSize=12;align=center;rotation=0;" vertex="1" parent="P_OR-0nrxTRL4F3owcym-167">
          <mxGeometry x="173" y="650" width="190" height="10" as="geometry" />
        </mxCell>
        <mxCell id="P_OR-0nrxTRL4F3owcym-206" style="edgeStyle=orthogonalEdgeStyle;rounded=0;orthogonalLoop=1;jettySize=auto;html=1;exitX=0.5;exitY=1;exitDx=0;exitDy=0;entryX=0.75;entryY=0;entryDx=0;entryDy=0;" edge="1" parent="P_OR-0nrxTRL4F3owcym-167" source="P_OR-0nrxTRL4F3owcym-200" target="P_OR-0nrxTRL4F3owcym-205">
          <mxGeometry relative="1" as="geometry">
            <mxPoint x="297" y="645" as="targetPoint" />
          </mxGeometry>
        </mxCell>
        <mxCell id="P_OR-0nrxTRL4F3owcym-233" value="应用市场云端系统" style="swimlane;html=1;startSize=20;" vertex="1" parent="1c1d494c118603dd-2">
          <mxGeometry x="1720" y="20" width="220" height="1280" as="geometry" />
        </mxCell>
        <mxCell id="P_OR-0nrxTRL4F3owcym-234" value="返回FA应用" style="rounded=1;whiteSpace=wrap;html=1;shadow=0;comic=0;labelBackgroundColor=none;strokeWidth=1;fontFamily=Verdana;fontSize=12;align=center;arcSize=50;" vertex="1" parent="P_OR-0nrxTRL4F3owcym-233">
          <mxGeometry x="60" y="980" width="100" height="30" as="geometry" />
        </mxCell>
        <mxCell id="P_OR-0nrxTRL4F3owcym-229" value="HAG服务管理系统" style="swimlane;html=1;startSize=20;" vertex="1" parent="1c1d494c118603dd-2">
          <mxGeometry x="1490" y="20" width="230" height="1280" as="geometry" />
        </mxCell>
        <mxCell id="P_OR-0nrxTRL4F3owcym-230" style="edgeStyle=orthogonalEdgeStyle;rounded=0;orthogonalLoop=1;jettySize=auto;html=1;exitX=0.5;exitY=1;exitDx=0;exitDy=0;entryX=0.5;entryY=0;entryDx=0;entryDy=0;" edge="1" parent="P_OR-0nrxTRL4F3owcym-229" source="P_OR-0nrxTRL4F3owcym-232" target="P_OR-0nrxTRL4F3owcym-231">
          <mxGeometry relative="1" as="geometry" />
        </mxCell>
        <mxCell id="P_OR-0nrxTRL4F3owcym-231" value="返回FA应用信息" style="rounded=1;whiteSpace=wrap;html=1;shadow=0;comic=0;labelBackgroundColor=none;strokeWidth=1;fontFamily=Verdana;fontSize=12;align=center;arcSize=50;" vertex="1" parent="P_OR-0nrxTRL4F3owcym-229">
          <mxGeometry x="52.5" y="515" width="145" height="30" as="geometry" />
        </mxCell>
        <mxCell id="P_OR-0nrxTRL4F3owcym-232" value="根据设备标识和OneHop产品包名获取FA应用信息" style="rounded=1;whiteSpace=wrap;html=1;shadow=0;comic=0;labelBackgroundColor=none;strokeWidth=1;fontFamily=Verdana;fontSize=12;align=center;arcSize=50;" vertex="1" parent="P_OR-0nrxTRL4F3owcym-229">
          <mxGeometry x="52.5" y="445" width="145" height="30" as="geometry" />
        </mxCell>
        <mxCell id="P_OR-0nrxTRL4F3owcym-224" value="标签运营管理系统" style="swimlane;html=1;startSize=20;" vertex="1" parent="1c1d494c118603dd-2">
          <mxGeometry x="1260" y="20" width="230" height="1280" as="geometry" />
        </mxCell>
        <mxCell id="P_OR-0nrxTRL4F3owcym-225" style="edgeStyle=orthogonalEdgeStyle;rounded=0;orthogonalLoop=1;jettySize=auto;html=1;exitX=0.5;exitY=1;exitDx=0;exitDy=0;entryX=0.5;entryY=0;entryDx=0;entryDy=0;" edge="1" parent="P_OR-0nrxTRL4F3owcym-224" source="P_OR-0nrxTRL4F3owcym-226" target="P_OR-0nrxTRL4F3owcym-227">
          <mxGeometry relative="1" as="geometry" />
        </mxCell>
        <mxCell id="P_OR-0nrxTRL4F3owcym-226" value="解析标签信息，获取设备标识" style="rounded=1;whiteSpace=wrap;html=1;shadow=0;comic=0;labelBackgroundColor=none;strokeWidth=1;fontFamily=Verdana;fontSize=12;align=center;arcSize=50;" vertex="1" parent="P_OR-0nrxTRL4F3owcym-224">
          <mxGeometry x="71" y="375" width="100" height="30" as="geometry" />
        </mxCell>
        <mxCell id="P_OR-0nrxTRL4F3owcym-227" value="获取FA应用信息" style="rounded=1;whiteSpace=wrap;html=1;shadow=0;comic=0;labelBackgroundColor=none;strokeWidth=1;fontFamily=Verdana;fontSize=12;align=center;arcSize=50;" vertex="1" parent="P_OR-0nrxTRL4F3owcym-224">
          <mxGeometry x="71" y="445" width="100" height="30" as="geometry" />
        </mxCell>
        <mxCell id="P_OR-0nrxTRL4F3owcym-228" value="返回FA应用信息" style="rounded=1;whiteSpace=wrap;html=1;shadow=0;comic=0;labelBackgroundColor=none;strokeWidth=1;fontFamily=Verdana;fontSize=12;align=center;arcSize=50;" vertex="1" parent="P_OR-0nrxTRL4F3owcym-224">
          <mxGeometry x="71" y="515" width="100" height="30" as="geometry" />
        </mxCell>
        <mxCell id="P_OR-0nrxTRL4F3owcym-222" value="设备NFC标签" style="swimlane;html=1;startSize=20;" vertex="1" parent="1c1d494c118603dd-2">
          <mxGeometry x="1040" y="20" width="220" height="1280" as="geometry" />
        </mxCell>
        <mxCell id="P_OR-0nrxTRL4F3owcym-223" value="返回设备标签信息" style="rounded=1;whiteSpace=wrap;html=1;shadow=0;comic=0;labelBackgroundColor=none;strokeWidth=1;fontFamily=Verdana;fontSize=12;align=center;arcSize=50;" vertex="1" parent="P_OR-0nrxTRL4F3owcym-222">
          <mxGeometry x="80" y="181" width="100" height="30" as="geometry" />
        </mxCell>
        <mxCell id="P_OR-0nrxTRL4F3owcym-215" value="手机操作系统" style="swimlane;html=1;startSize=20;" vertex="1" parent="1c1d494c118603dd-2">
          <mxGeometry x="820" y="20" width="220" height="1280" as="geometry" />
        </mxCell>
        <mxCell id="P_OR-0nrxTRL4F3owcym-216" style="edgeStyle=orthogonalEdgeStyle;rounded=0;orthogonalLoop=1;jettySize=auto;html=1;exitX=0.5;exitY=1;exitDx=0;exitDy=0;" edge="1" parent="P_OR-0nrxTRL4F3owcym-215" source="P_OR-0nrxTRL4F3owcym-217" target="P_OR-0nrxTRL4F3owcym-218">
          <mxGeometry relative="1" as="geometry" />
        </mxCell>
        <mxCell id="P_OR-0nrxTRL4F3owcym-217" value="获得FA下载地址" style="rounded=1;whiteSpace=wrap;html=1;shadow=0;comic=0;labelBackgroundColor=none;strokeWidth=1;fontFamily=Verdana;fontSize=12;align=center;arcSize=50;" vertex="1" parent="P_OR-0nrxTRL4F3owcym-215">
          <mxGeometry x="70" y="910" width="100" height="30" as="geometry" />
        </mxCell>
        <mxCell id="P_OR-0nrxTRL4F3owcym-218" value="下载FA应用" style="rounded=1;whiteSpace=wrap;html=1;shadow=0;comic=0;labelBackgroundColor=none;strokeWidth=1;fontFamily=Verdana;fontSize=12;align=center;arcSize=50;" vertex="1" parent="P_OR-0nrxTRL4F3owcym-215">
          <mxGeometry x="70" y="980" width="100" height="30" as="geometry" />
        </mxCell>
        <mxCell id="P_OR-0nrxTRL4F3owcym-219" style="edgeStyle=orthogonalEdgeStyle;rounded=0;orthogonalLoop=1;jettySize=auto;html=1;exitX=0.5;exitY=1;exitDx=0;exitDy=0;entryX=0.5;entryY=0;entryDx=0;entryDy=0;" edge="1" parent="P_OR-0nrxTRL4F3owcym-215" source="P_OR-0nrxTRL4F3owcym-220" target="P_OR-0nrxTRL4F3owcym-221">
          <mxGeometry relative="1" as="geometry" />
        </mxCell>
        <mxCell id="P_OR-0nrxTRL4F3owcym-220" value="解包并安装FA" style="rounded=1;whiteSpace=wrap;html=1;shadow=0;comic=0;labelBackgroundColor=none;strokeWidth=1;fontFamily=Verdana;fontSize=12;align=center;arcSize=50;" vertex="1" parent="P_OR-0nrxTRL4F3owcym-215">
          <mxGeometry x="70" y="1060" width="100" height="30" as="geometry" />
        </mxCell>
        <mxCell id="P_OR-0nrxTRL4F3owcym-221" value="半模态拉起FA" style="rounded=1;whiteSpace=wrap;html=1;shadow=0;comic=0;labelBackgroundColor=none;strokeWidth=1;fontFamily=Verdana;fontSize=12;align=center;arcSize=50;" vertex="1" parent="P_OR-0nrxTRL4F3owcym-215">
          <mxGeometry x="70" y="1130" width="100" height="30" as="geometry" />
        </mxCell>
        <mxCell id="P_OR-0nrxTRL4F3owcym-211" value="智能家居设备FA" style="swimlane;html=1;startSize=20;" vertex="1" parent="1c1d494c118603dd-2">
          <mxGeometry x="620" y="20" width="200" height="1280" as="geometry" />
        </mxCell>
        <mxCell id="P_OR-0nrxTRL4F3owcym-212" style="edgeStyle=orthogonalEdgeStyle;rounded=0;orthogonalLoop=1;jettySize=auto;html=1;exitX=0.5;exitY=1;exitDx=0;exitDy=0;entryX=0.5;entryY=0;entryDx=0;entryDy=0;" edge="1" parent="P_OR-0nrxTRL4F3owcym-211" source="P_OR-0nrxTRL4F3owcym-213" target="P_OR-0nrxTRL4F3owcym-214">
          <mxGeometry relative="1" as="geometry" />
        </mxCell>
        <mxCell id="P_OR-0nrxTRL4F3owcym-213" value="智能家居设备FA半模态启动" style="rounded=1;whiteSpace=wrap;html=1;shadow=0;comic=0;labelBackgroundColor=none;strokeWidth=1;fontFamily=Verdana;fontSize=12;align=center;arcSize=50;" vertex="1" parent="P_OR-0nrxTRL4F3owcym-211">
          <mxGeometry x="60" y="1130" width="100" height="30" as="geometry" />
        </mxCell>
        <mxCell id="P_OR-0nrxTRL4F3owcym-214" value="" style="shape=mxgraph.bpmn.shape;html=1;verticalLabelPosition=bottom;labelBackgroundColor=#ffffff;verticalAlign=top;perimeter=ellipsePerimeter;outline=end;symbol=terminate;rounded=0;shadow=0;comic=0;strokeWidth=1;fontFamily=Verdana;fontSize=12;align=center;" vertex="1" parent="P_OR-0nrxTRL4F3owcym-211">
          <mxGeometry x="90" y="1200" width="40" height="40" as="geometry" />
        </mxCell>
        <mxCell id="P_OR-0nrxTRL4F3owcym-207" value="HiLink应用" style="swimlane;html=1;startSize=20;" vertex="1" parent="1c1d494c118603dd-2">
          <mxGeometry x="380" y="20" width="240" height="1280" as="geometry" />
        </mxCell>
        <mxCell id="P_OR-0nrxTRL4F3owcym-208" style="edgeStyle=orthogonalEdgeStyle;rounded=0;orthogonalLoop=1;jettySize=auto;html=1;exitX=0.5;exitY=1;exitDx=0;exitDy=0;entryX=0.5;entryY=0;entryDx=0;entryDy=0;" edge="1" parent="P_OR-0nrxTRL4F3owcym-207" source="P_OR-0nrxTRL4F3owcym-209" target="P_OR-0nrxTRL4F3owcym-210">
          <mxGeometry relative="1" as="geometry" />
        </mxCell>
        <mxCell id="P_OR-0nrxTRL4F3owcym-209" value="启动HiLink SVC服务" style="rounded=1;whiteSpace=wrap;html=1;shadow=0;comic=0;labelBackgroundColor=none;strokeWidth=1;fontFamily=Verdana;fontSize=12;align=center;arcSize=50;" vertex="1" parent="P_OR-0nrxTRL4F3owcym-207">
          <mxGeometry x="54" y="830" width="100" height="30" as="geometry" />
        </mxCell>
        <mxCell id="P_OR-0nrxTRL4F3owcym-210" value="调用startAbility拉起FA应用" style="rounded=1;whiteSpace=wrap;html=1;shadow=0;comic=0;labelBackgroundColor=none;strokeWidth=1;fontFamily=Verdana;fontSize=12;align=center;arcSize=50;" vertex="1" parent="P_OR-0nrxTRL4F3owcym-207">
          <mxGeometry x="54" y="910" width="100" height="30" as="geometry" />
        </mxCell>
        <mxCell id="P_OR-0nrxTRL4F3owcym-235" style="edgeStyle=orthogonalEdgeStyle;rounded=0;orthogonalLoop=1;jettySize=auto;html=1;exitX=1;exitY=0.5;exitDx=0;exitDy=0;entryX=0;entryY=0.5;entryDx=0;entryDy=0;" edge="1" parent="1c1d494c118603dd-2" source="P_OR-0nrxTRL4F3owcym-182" target="P_OR-0nrxTRL4F3owcym-223">
          <mxGeometry relative="1" as="geometry" />
        </mxCell>
        <mxCell id="P_OR-0nrxTRL4F3owcym-236" style="edgeStyle=orthogonalEdgeStyle;rounded=0;orthogonalLoop=1;jettySize=auto;html=1;exitX=0.5;exitY=1;exitDx=0;exitDy=0;entryX=1;entryY=0.5;entryDx=0;entryDy=0;dashed=1;" edge="1" parent="1c1d494c118603dd-2" source="P_OR-0nrxTRL4F3owcym-223" target="P_OR-0nrxTRL4F3owcym-193">
          <mxGeometry relative="1" as="geometry" />
        </mxCell>
        <mxCell id="P_OR-0nrxTRL4F3owcym-237" style="edgeStyle=orthogonalEdgeStyle;rounded=0;orthogonalLoop=1;jettySize=auto;html=1;exitX=1;exitY=0.5;exitDx=0;exitDy=0;entryX=0;entryY=0.5;entryDx=0;entryDy=0;" edge="1" parent="1c1d494c118603dd-2" source="P_OR-0nrxTRL4F3owcym-199" target="P_OR-0nrxTRL4F3owcym-226">
          <mxGeometry relative="1" as="geometry" />
        </mxCell>
        <mxCell id="P_OR-0nrxTRL4F3owcym-249" value="发送标签信息和OneHop包名信息" style="edgeLabel;html=1;align=center;verticalAlign=middle;resizable=0;points=[];" vertex="1" connectable="0" parent="P_OR-0nrxTRL4F3owcym-237">
          <mxGeometry x="-0.8393" y="1" relative="1" as="geometry">
            <mxPoint x="33" y="1" as="offset" />
          </mxGeometry>
        </mxCell>
        <mxCell id="P_OR-0nrxTRL4F3owcym-238" value="标签和包名信息" style="edgeStyle=orthogonalEdgeStyle;rounded=0;orthogonalLoop=1;jettySize=auto;html=1;exitX=1;exitY=0.5;exitDx=0;exitDy=0;" edge="1" parent="1c1d494c118603dd-2" source="P_OR-0nrxTRL4F3owcym-227" target="P_OR-0nrxTRL4F3owcym-232">
          <mxGeometry relative="1" as="geometry">
            <Array as="points">
              <mxPoint x="1460" y="480" />
              <mxPoint x="1460" y="480" />
            </Array>
          </mxGeometry>
        </mxCell>
        <mxCell id="P_OR-0nrxTRL4F3owcym-239" style="edgeStyle=orthogonalEdgeStyle;rounded=0;orthogonalLoop=1;jettySize=auto;html=1;exitX=0;exitY=0.5;exitDx=0;exitDy=0;entryX=1;entryY=0.5;entryDx=0;entryDy=0;dashed=1;" edge="1" parent="1c1d494c118603dd-2" source="P_OR-0nrxTRL4F3owcym-231" target="P_OR-0nrxTRL4F3owcym-228">
          <mxGeometry relative="1" as="geometry" />
        </mxCell>
        <mxCell id="P_OR-0nrxTRL4F3owcym-240" style="edgeStyle=orthogonalEdgeStyle;rounded=0;orthogonalLoop=1;jettySize=auto;html=1;exitX=0;exitY=0.5;exitDx=0;exitDy=0;entryX=1;entryY=0.5;entryDx=0;entryDy=0;dashed=1;" edge="1" parent="1c1d494c118603dd-2" source="P_OR-0nrxTRL4F3owcym-228" target="P_OR-0nrxTRL4F3owcym-200">
          <mxGeometry relative="1" as="geometry" />
        </mxCell>
        <mxCell id="P_OR-0nrxTRL4F3owcym-241" value="发送应用信息" style="edgeStyle=orthogonalEdgeStyle;rounded=0;orthogonalLoop=1;jettySize=auto;html=1;exitX=1;exitY=0.5;exitDx=0;exitDy=0;entryX=0;entryY=0.5;entryDx=0;entryDy=0;" edge="1" parent="1c1d494c118603dd-2" source="P_OR-0nrxTRL4F3owcym-192" target="P_OR-0nrxTRL4F3owcym-209">
          <mxGeometry relative="1" as="geometry" />
        </mxCell>
        <mxCell id="P_OR-0nrxTRL4F3owcym-242" style="edgeStyle=orthogonalEdgeStyle;rounded=0;orthogonalLoop=1;jettySize=auto;html=1;exitX=1;exitY=0.5;exitDx=0;exitDy=0;" edge="1" parent="1c1d494c118603dd-2" source="P_OR-0nrxTRL4F3owcym-210" target="P_OR-0nrxTRL4F3owcym-217">
          <mxGeometry relative="1" as="geometry" />
        </mxCell>
        <mxCell id="P_OR-0nrxTRL4F3owcym-248" value="发送应用URL下载地址" style="edgeLabel;html=1;align=center;verticalAlign=middle;resizable=0;points=[];" vertex="1" connectable="0" parent="P_OR-0nrxTRL4F3owcym-242">
          <mxGeometry x="-0.7303" relative="1" as="geometry">
            <mxPoint x="18" as="offset" />
          </mxGeometry>
        </mxCell>
        <mxCell id="P_OR-0nrxTRL4F3owcym-243" style="edgeStyle=orthogonalEdgeStyle;rounded=0;orthogonalLoop=1;jettySize=auto;html=1;exitX=1;exitY=0.5;exitDx=0;exitDy=0;entryX=0;entryY=0.5;entryDx=0;entryDy=0;" edge="1" parent="1c1d494c118603dd-2" source="P_OR-0nrxTRL4F3owcym-218" target="P_OR-0nrxTRL4F3owcym-234">
          <mxGeometry relative="1" as="geometry" />
        </mxCell>
        <mxCell id="P_OR-0nrxTRL4F3owcym-247" value="通过URL下载" style="edgeLabel;html=1;align=center;verticalAlign=middle;resizable=0;points=[];" vertex="1" connectable="0" parent="P_OR-0nrxTRL4F3owcym-243">
          <mxGeometry x="-0.7848" y="-1" relative="1" as="geometry">
            <mxPoint as="offset" />
          </mxGeometry>
        </mxCell>
        <mxCell id="P_OR-0nrxTRL4F3owcym-244" style="edgeStyle=orthogonalEdgeStyle;rounded=0;orthogonalLoop=1;jettySize=auto;html=1;exitX=0.5;exitY=1;exitDx=0;exitDy=0;entryX=1;entryY=0.5;entryDx=0;entryDy=0;dashed=1;" edge="1" parent="1c1d494c118603dd-2" source="P_OR-0nrxTRL4F3owcym-234" target="P_OR-0nrxTRL4F3owcym-220">
          <mxGeometry relative="1" as="geometry" />
        </mxCell>
        <mxCell id="P_OR-0nrxTRL4F3owcym-246" value="返回应用包" style="edgeLabel;html=1;align=center;verticalAlign=middle;resizable=0;points=[];" vertex="1" connectable="0" parent="P_OR-0nrxTRL4F3owcym-244">
          <mxGeometry x="-0.6641" y="-1" relative="1" as="geometry">
            <mxPoint as="offset" />
          </mxGeometry>
        </mxCell>
        <mxCell id="P_OR-0nrxTRL4F3owcym-245" style="edgeStyle=orthogonalEdgeStyle;rounded=0;orthogonalLoop=1;jettySize=auto;html=1;exitX=0;exitY=0.5;exitDx=0;exitDy=0;entryX=1;entryY=0.5;entryDx=0;entryDy=0;dashed=1;" edge="1" parent="1c1d494c118603dd-2" source="P_OR-0nrxTRL4F3owcym-221" target="P_OR-0nrxTRL4F3owcym-213">
          <mxGeometry relative="1" as="geometry" />
        </mxCell>
        <mxCell id="1c1d494c118603dd-3" value="智能家居设备侧" style="swimlane;html=1;startSize=20;" parent="1c1d494c118603dd-1" vertex="1">
          <mxGeometry x="1040" y="20" width="220" height="1300" as="geometry" />
        </mxCell>
        <mxCell id="1c1d494c118603dd-4" value="云端系统" style="swimlane;html=1;startSize=20;" parent="1c1d494c118603dd-1" vertex="1">
          <mxGeometry x="1260" y="20" width="680" height="1300" as="geometry" />
        </mxCell>
      </root>
    </mxGraphModel>
  </diagram>
</mxfile>
